<mxfile host="app.diagrams.net" modified="2021-12-04T18:14:47.800Z" agent="5.0 (X11; Linux x86_64) AppleWebKit/537.36 (KHTML, like Gecko) Chrome/92.0.4515.131 Safari/537.36" etag="lwlEYwKsaHmuEj9ywx16" version="15.8.9" type="github">
  <diagram id="B_Kyze1z_75yRYQksSdH" name="Page-1">
    <mxGraphModel dx="680" dy="385" grid="1" gridSize="10" guides="1" tooltips="1" connect="1" arrows="1" fold="1" page="1" pageScale="1" pageWidth="827" pageHeight="1169" math="0" shadow="0">
      <root>
        <mxCell id="0" />
        <mxCell id="1" parent="0" />
        <mxCell id="ECenVt-TSsv9WHNrmQlT-5" style="edgeStyle=orthogonalEdgeStyle;rounded=0;orthogonalLoop=1;jettySize=auto;html=1;entryX=0.5;entryY=0;entryDx=0;entryDy=0;" edge="1" parent="1" source="ECenVt-TSsv9WHNrmQlT-2" target="ECenVt-TSsv9WHNrmQlT-4">
          <mxGeometry relative="1" as="geometry" />
        </mxCell>
        <mxCell id="ECenVt-TSsv9WHNrmQlT-2" value="CadastroPublicacao" style="rounded=0;whiteSpace=wrap;html=1;" vertex="1" parent="1">
          <mxGeometry x="280" y="80" width="120" height="40" as="geometry" />
        </mxCell>
        <mxCell id="ECenVt-TSsv9WHNrmQlT-3" value="" style="endArrow=classic;html=1;rounded=0;" edge="1" parent="1">
          <mxGeometry width="50" height="50" relative="1" as="geometry">
            <mxPoint x="340" y="40" as="sourcePoint" />
            <mxPoint x="339.5" y="80" as="targetPoint" />
          </mxGeometry>
        </mxCell>
        <mxCell id="ECenVt-TSsv9WHNrmQlT-4" value="CadastroPublicacao" style="rounded=0;whiteSpace=wrap;html=1;" vertex="1" parent="1">
          <mxGeometry x="280" y="200" width="120" height="40" as="geometry" />
        </mxCell>
        <mxCell id="ECenVt-TSsv9WHNrmQlT-6" value="Text&lt;br&gt;dsadsa&lt;br&gt;" style="text;html=1;strokeColor=none;fillColor=none;align=center;verticalAlign=middle;whiteSpace=wrap;rounded=0;" vertex="1" parent="1">
          <mxGeometry x="470" y="130" width="60" height="30" as="geometry" />
        </mxCell>
      </root>
    </mxGraphModel>
  </diagram>
</mxfile>
